<svg width="21" height="21" viewBox="0 0 21 21" fill="none" xmlns="http://www.w3.org/2000/svg">
<path d="M12.1831 10.3246L9.82477 9.22417C9.61897 9.12862 9.44992 9.23572 9.44992 9.46357V11.5363C9.44992 11.7641 9.61897 11.8712 9.82477 11.7757L12.182 10.6753C12.3889 10.5787 12.3889 10.4212 12.1831 10.3246ZM10.4999 0.419922C4.93282 0.419922 0.419922 4.93282 0.419922 10.4999C0.419922 16.067 4.93282 20.5799 10.4999 20.5799C16.067 20.5799 20.5799 16.067 20.5799 10.4999C20.5799 4.93282 16.067 0.419922 10.4999 0.419922ZM10.4999 14.5949C5.34022 14.5949 5.24992 14.1298 5.24992 10.4999C5.24992 6.87007 5.34022 6.40492 10.4999 6.40492C15.6596 6.40492 15.7499 6.87007 15.7499 10.4999C15.7499 14.1298 15.6596 14.5949 10.4999 14.5949Z" fill="#BDBDBD"/>
</svg>
